<svg width="68px" height="22px" viewBox="0 0 68 22" version="1.1" xmlns="http://www.w3.org/2000/svg" xmlns:xlink="http://www.w3.org/1999/xlink">
    <g id="Page-examples" stroke="none" stroke-width="1" fill="none" fill-rule="evenodd">
        <g id="Home-page-desktop" transform="translate(-203.000000, -46.000000)" fill="currentColor" fill-rule="nonzero">
            <g id="Mula" transform="translate(203.932000, 46.280000)">
                <polygon id="Path" points="21.308 1.176 21.308 20.72 17.388 20.72 17.388 8.008 12.152 20.72 9.184 20.72 3.92 8.008 3.92 20.72 0 20.72 0 1.176 4.452 1.176 10.668 15.708 16.884 1.176"></polygon>
                <path d="M39.816,5.208 L39.816,20.72 L35.868,20.72 L35.868,18.76 C35.364,19.432 34.706,19.9593333 33.894,20.342 C33.082,20.7246667 32.2,20.916 31.248,20.916 C30.0346667,20.916 28.9613333,20.6593333 28.028,20.146 C27.0946667,19.6326667 26.362,18.8766667 25.83,17.878 C25.298,16.8793333 25.032,15.6893333 25.032,14.308 L25.032,5.208 L28.952,5.208 L28.952,13.748 C28.952,14.98 29.26,15.9273333 29.876,16.59 C30.492,17.2526667 31.332,17.584 32.396,17.584 C33.4786667,17.584 34.328,17.2526667 34.944,16.59 C35.56,15.9273333 35.868,14.98 35.868,13.748 L35.868,5.208 L39.816,5.208 Z" id="Path"></path>
                <polygon id="Path" points="47.6 0 47.6 20.72 43.68 20.72 43.68 0"></polygon>
                <path d="M50.456,12.908 C50.456,11.34 50.7686667,9.94933333 51.394,8.736 C52.0193333,7.52266667 52.8686667,6.58933333 53.942,5.936 C55.0153333,5.28266667 56.2146667,4.956 57.54,4.956 C58.6973333,4.956 59.71,5.18933333 60.578,5.656 C61.446,6.12266667 62.1413333,6.71066667 62.664,7.42 L62.664,5.208 L66.612,5.208 L66.612,20.72 L62.664,20.72 L62.664,18.452 C62.16,19.18 61.4646667,19.782 60.578,20.258 C59.6913333,20.734 58.6693333,20.972 57.512,20.972 C56.2053333,20.972 55.0153333,20.636 53.942,19.964 C52.8686667,19.292 52.0193333,18.3446667 51.394,17.122 C50.7686667,15.8993333 50.456,14.4946667 50.456,12.908 Z M62.664,12.964 C62.664,12.012 62.4773333,11.1953333 62.104,10.514 C61.7306667,9.83266667 61.2266667,9.31 60.592,8.946 C59.9573333,8.582 59.276,8.4 58.548,8.4 C57.82,8.4 57.148,8.57733333 56.532,8.932 C55.916,9.28666667 55.4166667,9.80466667 55.034,10.486 C54.6513333,11.1673333 54.46,11.9746667 54.46,12.908 C54.46,13.8413333 54.6513333,14.658 55.034,15.358 C55.4166667,16.058 55.9206667,16.5946667 56.546,16.968 C57.1713333,17.3413333 57.8386667,17.528 58.548,17.528 C59.276,17.528 59.9573333,17.346 60.592,16.982 C61.2266667,16.618 61.7306667,16.0953333 62.104,15.414 C62.4773333,14.7326667 62.664,13.916 62.664,12.964 Z" id="Shape"></path>
            </g>
        </g>
    </g>
</svg>